Coordinates
version=1
nRows=20
nColumns=38
inDegrees=no

Units are S.I. units (second, meters, Newtons, ...)
If the header above contains a line with 'inDegrees', this indicates whether rotational values are in degrees (yes) or radians (no).

endheader
time	pelvis_tilt	pelvis_list	pelvis_rotation	pelvis_tx	pelvis_ty	pelvis_tz	hip_flexion_r	hip_adduction_r	hip_rotation_r	knee_angle_r	ankle_angle_r	subtalar_angle_r	mtp_angle_r	hip_flexion_l	hip_adduction_l	hip_rotation_l	knee_angle_l	ankle_angle_l	subtalar_angle_l	mtp_angle_l	lumbar_extension	lumbar_bending	lumbar_rotation	arm_flex_r	arm_add_r	arm_rot_r	elbow_flex_r	pro_sup_r	wrist_flex_r	wrist_dev_r	arm_flex_l	arm_add_l	arm_rot_l	elbow_flex_l	pro_sup_l	wrist_flex_l	wrist_dev_l
0.49	-2.69963	1.50292	-2.07743	0.605118	0.280024	0.933453	-0.233193	-0.096292	-0.187556	0.555051	0.247526	0	0	0.400062	0.0721107	-0.245764	0.291542	0.204352	0	0	-0.166075	-0.0966376	-0.0305657	-0.11369	-0.0890935	-0.179616	0.302961	1.48395	0	0	-0.088918	-0.382299	0.761942	0.654865	0.799376	0	0
0.5	-2.62212	1.50532	-2.16166	0.604602	0.294871	0.932336	-0.203795	-0.109327	-0.168823	0.621997	0.216083	0	0	0.413317	0.0728009	-0.24163	0.329416	0.181738	0	0	-0.15476	-0.103124	-0.0250309	-0.117875	-0.0872312	-0.182829	0.303738	1.48022	0	0	-0.0975656	-0.380225	0.75905	0.659423	0.786566	0	0
0.51	-2.48293	1.50588	-2.30435	0.603679	0.308979	0.931637	-0.166623	-0.125154	-0.148721	0.696554	0.175711	0	0	0.428339	0.0770404	-0.23988	0.367883	0.163396	0	0	-0.144727	-0.113095	-0.0235003	-0.121219	-0.0849186	-0.185988	0.308021	1.47873	0	0	-0.104929	-0.379063	0.754263	0.664798	0.777079	0	0
0.52	-2.33458	1.50321	-2.45327	0.602638	0.322642	0.931407	-0.126539	-0.140902	-0.128814	0.773354	0.126447	0	0	0.442491	0.0832342	-0.238818	0.408962	0.159274	0	0	-0.137425	-0.124632	-0.0248765	-0.123643	-0.0822166	-0.187987	0.313109	1.47685	0	0	-0.110421	-0.379996	0.752354	0.672213	0.766019	0	0
0.53	-2.22563	1.49769	-2.56135	0.601711	0.336199	0.931501	-0.0868078	-0.154747	-0.109542	0.849558	0.0704466	0	0	0.451502	0.0899806	-0.238348	0.447342	0.161712	0	0	-0.133412	-0.135927	-0.026963	-0.12539	-0.079707	-0.188178	0.316823	1.47388	0	0	-0.114368	-0.383363	0.754236	0.682735	0.751569	0	0
0.54	-2.14143	1.49067	-2.64472	0.600881	0.349638	0.931623	-0.0452135	-0.167398	-0.0901784	0.92574	0.011546	0	0	0.454661	0.0973685	-0.240261	0.476999	0.162766	0	0	-0.130741	-0.147015	-0.0280217	-0.127168	-0.077846	-0.186967	0.320123	1.47109	0	0	-0.116849	-0.38799	0.758665	0.694801	0.737506	0	0
0.55	-2.08211	1.48293	-2.70238	0.599956	0.362965	0.931886	-0.00538256	-0.178513	-0.0729135	0.996235	-0.0485444	0	0	0.451014	0.105094	-0.245982	0.496311	0.162146	0	0	-0.128852	-0.157413	-0.0294872	-0.1285	-0.0768947	-0.183154	0.32161	1.46706	0	0	-0.117758	-0.393667	0.767562	0.707436	0.7206	0	0
0.56	-2.07966	1.48354	-2.70238	0.599116	0.376551	0.931798	0.0300671	-0.17672	-0.0577249	1.05796	-0.105978	0	0	0.457932	0.0871652	-0.293138	0.546808	0.175878	0	0	-0.126277	-0.156665	-0.0297347	-0.132537	-0.0781502	-0.181494	0.326039	1.46524	0	0	-0.11884	-0.396375	0.773007	0.717174	0.714425	0	0
0.57	-2.0274	1.47844	-2.7502	0.597864	0.389334	0.932301	0.0655345	-0.183246	-0.0467611	1.11473	-0.154521	0	0	0.447499	0.0932096	-0.303212	0.551692	0.178091	0	0	-0.123599	-0.163727	-0.0326356	-0.136346	-0.07849	-0.178377	0.333672	1.46121	0	0	-0.117284	-0.400722	0.780904	0.725758	0.705601	0	0
0.58	-1.98207	1.47253	-2.79038	0.596492	0.401794	0.933163	0.0987916	-0.189657	-0.0377396	1.16694	-0.180133	0	0	0.433852	0.101669	-0.310934	0.549991	0.179869	0	0	-0.121889	-0.171299	-0.0360965	-0.142239	-0.0799683	-0.171041	0.347146	1.45177	0	0	-0.11389	-0.405173	0.790881	0.732962	0.692993	0	0
0.59	-1.92688	1.46873	-2.84104	0.595312	0.413803	0.934047	0.137999	-0.190662	-0.024509	1.21691	-0.181345	0	0	0.423134	0.108547	-0.316377	0.548958	0.183236	0	0	-0.118227	-0.177127	-0.0394264	-0.147679	-0.0817429	-0.165428	0.361437	1.4435	0	0	-0.110976	-0.407354	0.793444	0.736211	0.690002	0	0
0.6	-1.88812	1.46617	-2.87505	0.594207	0.425623	0.935377	0.174365	-0.18834	-0.0116584	1.2602	-0.158303	0	0	0.410754	0.11507	-0.316989	0.546057	0.187528	0	0	-0.115891	-0.180837	-0.0433287	-0.152573	-0.0837981	-0.162109	0.376085	1.43742	0	0	-0.107997	-0.40798	0.792031	0.736652	0.692731	0	0
0.61	-1.87387	1.46494	-2.88418	0.59313	0.437343	0.937295	0.205089	-0.183275	-0.00071417	1.29305	-0.128482	0	0	0.394787	0.121345	-0.31232	0.540331	0.192571	0	0	-0.115821	-0.18211	-0.0479568	-0.1556	-0.086159	-0.160721	0.38786	1.43309	0	0	-0.104684	-0.406979	0.788115	0.734226	0.698816	0	0
0.62	-1.8734	1.46455	-2.87973	0.592093	0.448951	0.939643	0.232556	-0.176773	0.00849429	1.31578	-0.105262	0	0	0.375851	0.127635	-0.303623	0.531643	0.198368	0	0	-0.116926	-0.181964	-0.0528188	-0.156025	-0.0887297	-0.159912	0.394648	1.43026	0	0	-0.101265	-0.405054	0.78273	0.730385	0.705755	0	0
0.63	-1.87388	1.46466	-2.87503	0.591137	0.460465	0.942175	0.258879	-0.170194	0.0166342	1.33014	-0.0884466	0	0	0.355145	0.133711	-0.293971	0.519432	0.205054	0	0	-0.117858	-0.181262	-0.0570556	-0.154591	-0.0914273	-0.159245	0.397224	1.42817	0	0	-0.0981937	-0.402716	0.775294	0.726625	0.712031	0	0
0.64	-1.87622	1.46523	-2.86859	0.590229	0.471956	0.944776	0.283886	-0.163706	0.0235428	1.33742	-0.0740598	0	0	0.332771	0.139188	-0.284621	0.504122	0.211449	0	0	-0.118648	-0.179999	-0.0617392	-0.151552	-0.0943716	-0.158512	0.396551	1.42871	0	0	-0.0964176	-0.400653	0.766017	0.724808	0.713725	0	0
0.65	-1.87946	1.46647	-2.8611	0.589299	0.483373	0.947347	0.307552	-0.157429	0.0288091	1.33834	-0.0606206	0	0	0.309321	0.143897	-0.275762	0.48619	0.216215	0	0	-0.119222	-0.177883	-0.0671193	-0.147362	-0.0974926	-0.158238	0.393607	1.43205	0	0	-0.0954625	-0.399276	0.757164	0.725282	0.710867	0	0
0.66	-1.88946	1.46834	-2.84625	0.588329	0.494749	0.949869	0.328926	-0.151605	0.0317307	1.33315	-0.0482473	0	0	0.284668	0.147516	-0.267382	0.466709	0.219279	0	0	-0.120438	-0.174733	-0.0731026	-0.142859	-0.100419	-0.160532	0.389868	1.43855	0	0	-0.0948828	-0.398103	0.747442	0.726826	0.70781	0	0
0.67	-1.90891	1.47101	-2.82144	0.587359	0.506071	0.952304	0.347291	-0.145725	0.0326376	1.32165	-0.035617	0	0	0.259265	0.149673	-0.259199	0.446794	0.221362	0	0	-0.122579	-0.170391	-0.0793668	-0.138376	-0.103146	-0.164319	0.385744	1.44534	0	0	-0.0938217	-0.397524	0.739491	0.728819	0.70462	0	0
0.68	-1.9407	1.47428	-2.78363	0.586358	0.517309	0.954631	0.362952	-0.139962	0.0315293	1.30553	-0.0212323	0	0	0.233318	0.150592	-0.250337	0.427155	0.222621	0	0	-0.126054	-0.164936	-0.0866733	-0.133897	-0.105806	-0.169319	0.382301	1.45396	0	0	-0.0922767	-0.397616	0.733576	0.731703	0.698842	0	0
